<svg xmlns="http://www.w3.org/2000/svg" xmlns:xlink="http://www.w3.org/1999/xlink" width="1080" zoomAndPan="magnify" viewBox="0 0 810 809.999993" height="1080" preserveAspectRatio="xMidYMid meet" version="1.0"><defs><clipPath id="3019cd5dcb"><path d="M 0 291.410156 L 215.726562 291.410156 L 215.726562 518.589844 L 0 518.589844 Z M 0 291.410156 " clip-rule="nonzero"/></clipPath><clipPath id="5a9946f6d1"><path d="M 107.863281 291.410156 C 48.292969 291.410156 0 342.265625 0 405 C 0 467.734375 48.292969 518.589844 107.863281 518.589844 C 167.4375 518.589844 215.726562 467.734375 215.726562 405 C 215.726562 342.265625 167.4375 291.410156 107.863281 291.410156 Z M 107.863281 291.410156 " clip-rule="nonzero"/></clipPath><clipPath id="871d540bf7"><path d="M 297.136719 291.410156 L 512.863281 291.410156 L 512.863281 518.589844 L 297.136719 518.589844 Z M 297.136719 291.410156 " clip-rule="nonzero"/></clipPath><clipPath id="189f740e42"><path d="M 405 291.410156 C 345.429688 291.410156 297.136719 342.265625 297.136719 405 C 297.136719 467.734375 345.429688 518.589844 405 518.589844 C 464.570312 518.589844 512.863281 467.734375 512.863281 405 C 512.863281 342.265625 464.570312 291.410156 405 291.410156 Z M 405 291.410156 " clip-rule="nonzero"/></clipPath><clipPath id="1673eb4dd8"><path d="M 594.273438 291.410156 L 810 291.410156 L 810 518.589844 L 594.273438 518.589844 Z M 594.273438 291.410156 " clip-rule="nonzero"/></clipPath><clipPath id="3dad49802c"><path d="M 702.136719 291.410156 C 642.5625 291.410156 594.273438 342.265625 594.273438 405 C 594.273438 467.734375 642.5625 518.589844 702.136719 518.589844 C 761.707031 518.589844 810 467.734375 810 405 C 810 342.265625 761.707031 291.410156 702.136719 291.410156 Z M 702.136719 291.410156 " clip-rule="nonzero"/></clipPath></defs><g clip-path="url(#3019cd5dcb)"><g clip-path="url(#5a9946f6d1)"><path fill="#038d3b" d="M 0 291.410156 L 215.726562 291.410156 L 215.726562 518.589844 L 0 518.589844 Z M 0 291.410156 " fill-opacity="1" fill-rule="nonzero"/></g></g><g clip-path="url(#871d540bf7)"><g clip-path="url(#189f740e42)"><path fill="#6c8892" d="M 297.136719 291.410156 L 512.863281 291.410156 L 512.863281 518.589844 L 297.136719 518.589844 Z M 297.136719 291.410156 " fill-opacity="1" fill-rule="nonzero"/></g></g><g clip-path="url(#1673eb4dd8)"><g clip-path="url(#3dad49802c)"><path fill="#a9c1ca" d="M 594.273438 291.410156 L 810 291.410156 L 810 518.589844 L 594.273438 518.589844 Z M 594.273438 291.410156 " fill-opacity="1" fill-rule="nonzero"/></g></g></svg>