<svg xmlns="http://www.w3.org/2000/svg" xmlns:xlink="http://www.w3.org/1999/xlink" width="1080" zoomAndPan="magnify" viewBox="0 0 810 809.999993" height="1080" preserveAspectRatio="xMidYMid meet" version="1.0"><defs><clipPath id="bd250c7a21"><path d="M 2 1.011719 L 810 1.011719 L 810 809 L 2 809 Z M 2 1.011719 " clip-rule="nonzero"/></clipPath></defs><g clip-path="url(#bd250c7a21)"><path fill="#39b54a" d="M 406.527344 1.121094 C 183.640625 1.085938 2.933594 181.824219 2.933594 404.789062 C 2.933594 472.015625 19.359375 535.402344 48.429688 591.160156 L 48.429688 591.167969 L 5.351562 768.613281 C 0 790.65625 20.542969 810.207031 42.289062 803.769531 L 206.097656 755.253906 L 206.105469 755.253906 C 265.148438 789.097656 333.542969 808.453125 406.464844 808.453125 C 629.328125 808.453125 809.992188 627.730469 809.992188 404.789062 C 809.996094 181.875 629.367188 1.15625 406.527344 1.125 Z M 406.460938 727.246094 C 228.429688 727.246094 84.113281 582.878906 84.109375 404.789062 C 84.109375 226.59375 228.324219 82.328125 406.464844 82.328125 C 584.492188 82.328125 728.8125 226.695312 728.816406 404.785156 C 728.816406 582.984375 584.601562 727.246094 406.460938 727.246094 Z M 406.460938 727.246094 " fill-opacity="1" fill-rule="nonzero"/></g><path fill="#ffffff" d="M 728.816406 404.789062 C 728.816406 410.066406 728.683594 415.339844 728.425781 420.609375 C 728.167969 425.882812 727.78125 431.144531 727.261719 436.394531 C 726.746094 441.644531 726.097656 446.882812 725.324219 452.101562 C 724.550781 457.324219 723.648438 462.519531 722.621094 467.695312 C 721.589844 472.871094 720.4375 478.019531 719.152344 483.140625 C 717.871094 488.257812 716.464844 493.34375 714.933594 498.394531 C 713.402344 503.441406 711.75 508.453125 709.972656 513.421875 C 708.195312 518.390625 706.296875 523.3125 704.277344 528.1875 C 702.257812 533.0625 700.121094 537.886719 697.863281 542.65625 C 695.609375 547.425781 693.238281 552.140625 690.75 556.792969 C 688.265625 561.449219 685.664062 566.039062 682.953125 570.566406 C 680.242188 575.089844 677.417969 579.546875 674.488281 583.9375 C 671.558594 588.324219 668.519531 592.636719 665.378906 596.875 C 662.234375 601.117188 658.992188 605.273438 655.644531 609.355469 C 652.296875 613.433594 648.851562 617.429688 645.308594 621.339844 C 641.765625 625.25 638.128906 629.070312 634.398438 632.800781 C 630.667969 636.53125 626.851562 640.171875 622.941406 643.714844 C 619.03125 647.257812 615.039062 650.703125 610.960938 654.050781 C 606.882812 657.398438 602.726562 660.644531 598.488281 663.789062 C 594.25 666.933594 589.9375 669.972656 585.550781 672.902344 C 581.164062 675.835938 576.710938 678.65625 572.183594 681.371094 C 567.660156 684.082031 563.070312 686.683594 558.417969 689.171875 C 553.765625 691.660156 549.054688 694.03125 544.285156 696.289062 C 539.515625 698.542969 534.695312 700.683594 529.820312 702.703125 C 524.945312 704.722656 520.027344 706.621094 515.058594 708.398438 C 510.09375 710.175781 505.085938 711.832031 500.035156 713.363281 C 494.988281 714.894531 489.90625 716.300781 484.789062 717.582031 C 479.671875 718.867188 474.523438 720.023438 469.351562 721.050781 C 464.175781 722.082031 458.980469 722.984375 453.761719 723.757812 C 448.542969 724.53125 443.308594 725.175781 438.058594 725.695312 C 432.808594 726.210938 427.546875 726.601562 422.28125 726.859375 C 417.011719 727.117188 411.738281 727.246094 406.460938 727.246094 C 401.1875 727.246094 395.914062 727.117188 390.644531 726.859375 C 385.375 726.601562 380.117188 726.210938 374.867188 725.695312 C 369.617188 725.175781 364.382812 724.53125 359.164062 723.757812 C 353.945312 722.984375 348.75 722.082031 343.574219 721.050781 C 338.402344 720.023438 333.253906 718.867188 328.136719 717.582031 C 323.019531 716.300781 317.9375 714.894531 312.890625 713.363281 C 307.839844 711.832031 302.832031 710.175781 297.867188 708.398438 C 292.898438 706.621094 287.976562 704.722656 283.105469 702.703125 C 278.230469 700.683594 273.410156 698.542969 268.640625 696.289062 C 263.871094 694.03125 259.160156 691.660156 254.507812 689.171875 C 249.855469 686.683594 245.265625 684.082031 240.742188 681.371094 C 236.214844 678.65625 231.761719 675.835938 227.375 672.902344 C 222.988281 669.972656 218.675781 666.933594 214.4375 663.789062 C 210.199219 660.644531 206.042969 657.398438 201.964844 654.050781 C 197.886719 650.703125 193.894531 647.257812 189.984375 643.714844 C 186.074219 640.171875 182.253906 636.53125 178.523438 632.800781 C 174.796875 629.070312 171.160156 625.25 167.617188 621.339844 C 164.074219 617.429688 160.628906 613.433594 157.28125 609.355469 C 153.933594 605.273438 150.691406 601.117188 147.546875 596.875 C 144.40625 592.636719 141.367188 588.324219 138.4375 583.9375 C 135.503906 579.546875 132.683594 575.089844 129.972656 570.566406 C 127.261719 566.039062 124.660156 561.449219 122.171875 556.792969 C 119.6875 552.140625 117.316406 547.425781 115.058594 542.65625 C 112.804688 537.886719 110.667969 533.0625 108.648438 528.1875 C 106.628906 523.3125 104.730469 518.390625 102.953125 513.421875 C 101.175781 508.453125 99.523438 503.441406 97.992188 498.394531 C 96.460938 493.34375 95.054688 488.257812 93.769531 483.140625 C 92.488281 478.019531 91.332031 472.871094 90.304688 467.695312 C 89.273438 462.519531 88.375 457.324219 87.597656 452.101562 C 86.824219 446.882812 86.179688 441.644531 85.664062 436.394531 C 85.144531 431.144531 84.757812 425.882812 84.5 420.609375 C 84.238281 415.339844 84.109375 410.066406 84.109375 404.789062 C 84.109375 399.511719 84.238281 394.238281 84.5 388.964844 C 84.757812 383.695312 85.144531 378.433594 85.664062 373.179688 C 86.179688 367.929688 86.824219 362.695312 87.597656 357.472656 C 88.375 352.253906 89.273438 347.054688 90.304688 341.878906 C 91.332031 336.703125 92.488281 331.554688 93.769531 326.4375 C 95.054688 321.316406 96.460938 316.234375 97.992188 311.183594 C 99.523438 306.132812 101.175781 301.125 102.953125 296.15625 C 104.730469 291.1875 106.628906 286.261719 108.648438 281.386719 C 110.667969 276.511719 112.804688 271.6875 115.058594 266.917969 C 117.316406 262.148438 119.6875 257.4375 122.171875 252.78125 C 124.660156 248.128906 127.261719 243.539062 129.972656 239.011719 C 132.683594 234.484375 135.503906 230.027344 138.4375 225.640625 C 141.367188 221.25 144.40625 216.9375 147.546875 212.699219 C 150.691406 208.460938 153.933594 204.300781 157.28125 200.222656 C 160.628906 196.140625 164.074219 192.148438 167.617188 188.238281 C 171.160156 184.328125 174.796875 180.507812 178.523438 176.773438 C 182.253906 173.042969 186.074219 169.40625 189.984375 165.859375 C 193.894531 162.316406 197.886719 158.871094 201.964844 155.523438 C 206.042969 152.175781 210.199219 148.929688 214.4375 145.785156 C 218.675781 142.640625 222.988281 139.605469 227.375 136.671875 C 231.761719 133.742188 236.214844 130.917969 240.742188 128.207031 C 245.265625 125.492188 249.855469 122.890625 254.507812 120.402344 C 259.160156 117.917969 263.871094 115.542969 268.640625 113.289062 C 273.410156 111.03125 278.230469 108.894531 283.105469 106.875 C 287.976562 104.855469 292.898438 102.957031 297.867188 101.179688 C 302.832031 99.398438 307.839844 97.746094 312.890625 96.214844 C 317.9375 94.683594 323.019531 93.273438 328.136719 91.992188 C 333.253906 90.710938 338.402344 89.554688 343.574219 88.523438 C 348.75 87.496094 353.945312 86.59375 359.164062 85.820312 C 364.382812 85.042969 369.617188 84.398438 374.867188 83.882812 C 380.117188 83.363281 385.375 82.976562 390.644531 82.71875 C 395.914062 82.457031 401.1875 82.328125 406.460938 82.328125 C 411.738281 82.328125 417.011719 82.457031 422.28125 82.71875 C 427.546875 82.976562 432.808594 83.363281 438.058594 83.882812 C 443.308594 84.398438 448.542969 85.042969 453.761719 85.820312 C 458.980469 86.59375 464.175781 87.496094 469.351562 88.523438 C 474.523438 89.554688 479.671875 90.710938 484.789062 91.992188 C 489.90625 93.273438 494.988281 94.683594 500.035156 96.214844 C 505.085938 97.746094 510.09375 99.398438 515.058594 101.179688 C 520.027344 102.957031 524.945312 104.855469 529.820312 106.875 C 534.695312 108.894531 539.515625 111.03125 544.285156 113.289062 C 549.054688 115.542969 553.765625 117.917969 558.417969 120.402344 C 563.070312 122.890625 567.660156 125.492188 572.183594 128.207031 C 576.710938 130.917969 581.164062 133.742188 585.550781 136.671875 C 589.9375 139.605469 594.25 142.640625 598.488281 145.785156 C 602.726562 148.929688 606.882812 152.175781 610.960938 155.523438 C 615.039062 158.871094 619.03125 162.316406 622.941406 165.859375 C 626.851562 169.40625 630.667969 173.042969 634.398438 176.773438 C 638.128906 180.507812 641.765625 184.328125 645.308594 188.238281 C 648.851562 192.148438 652.296875 196.140625 655.644531 200.222656 C 658.992188 204.300781 662.234375 208.460938 665.378906 212.699219 C 668.519531 216.9375 671.558594 221.25 674.488281 225.640625 C 677.417969 230.027344 680.242188 234.484375 682.953125 239.011719 C 685.664062 243.539062 688.265625 248.128906 690.75 252.78125 C 693.238281 257.4375 695.609375 262.148438 697.863281 266.917969 C 700.121094 271.6875 702.257812 276.511719 704.277344 281.386719 C 706.296875 286.261719 708.195312 291.1875 709.972656 296.15625 C 711.75 301.125 713.402344 306.132812 714.933594 311.183594 C 716.464844 316.234375 717.871094 321.316406 719.152344 326.4375 C 720.4375 331.554688 721.589844 336.703125 722.621094 341.878906 C 723.648438 347.054688 724.550781 352.253906 725.324219 357.472656 C 726.097656 362.695312 726.746094 367.929688 727.261719 373.179688 C 727.78125 378.433594 728.167969 383.695312 728.425781 388.964844 C 728.683594 394.238281 728.816406 399.511719 728.816406 404.789062 Z M 728.816406 404.789062 " fill-opacity="1" fill-rule="nonzero"/><path fill="#39b54a" d="M 364.230469 297.21875 L 351.421875 243.132812 C 345.6875 218.914062 321.410156 203.925781 297.199219 209.664062 C 295.546875 210.054688 293.917969 210.539062 292.320312 211.113281 L 262.789062 221.75 C 242.96875 228.898438 230.742188 248.824219 233.339844 269.738281 C 243.632812 353.390625 291.007812 555.757812 508.886719 600.222656 C 526.566406 603.832031 544.695312 596.550781 554.96875 581.714844 L 571.917969 557.21875 C 586.082031 536.75 580.980469 508.675781 560.519531 494.507812 C 560.421875 494.441406 560.328125 494.375 560.230469 494.308594 L 522.980469 468.9375 C 506.410156 457.652344 484.382812 458.675781 468.929688 471.445312 C 453.589844 484.15625 431.71875 485.257812 415.175781 474.15625 C 392.515625 458.882812 361.84375 433.558594 341.925781 398.449219 C 332.734375 382.339844 334.316406 362.246094 345.914062 347.773438 L 355.496094 335.855469 C 364.210938 325.015625 367.433594 310.753906 364.230469 297.21875 Z M 364.230469 297.21875 " fill-opacity="1" fill-rule="nonzero"/></svg>